<?xml version="1.0" standalone="no"?>
<!DOCTYPE svg PUBLIC "-//W3C//DTD SVG 20010904//EN"
 "http://www.w3.org/TR/2001/REC-SVG-20010904/DTD/svg10.dtd">
<svg version="1.0" xmlns="http://www.w3.org/2000/svg"
 width="898.000000pt" height="1280.000000pt" viewBox="0 0 898.000000 1280.000000"
 preserveAspectRatio="xMidYMid meet">

<g transform="translate(0.000000,1280.000000) scale(0.100000,-0.100000)"
fill="#000000" stroke="none">
<path d="M625 12338 c-3 -7 -4 -2663 -3 -5903 l3 -5890 3842 -3 3843 -2 0
5905 0 5905 -3840 0 c-3063 0 -3842 -3 -3845 -12z m7545 -4620 l0 -4493 -3705
0 -3705 0 0 4493 0 4492 3705 0 3705 0 0 -4492z m0 -5833 l0 -1205 -3705 0
-3705 0 0 1205 0 1205 3705 0 3705 0 0 -1205z"/>
<path d="M1472 11780 c-25 -20 -56 -30 -154 -50 -95 -19 -130 -79 -108 -186
12 -56 12 -56 43 -50 39 8 38 6 27 47 -15 52 -12 68 18 98 19 20 42 30 77 34
28 4 65 16 83 27 l32 20 0 -159 c0 -195 -2 -200 -105 -212 -119 -15 -181 -73
-172 -162 8 -87 61 -132 172 -146 91 -11 105 -28 105 -125 0 -90 -8 -103 -40
-73 -43 40 -115 77 -149 77 -47 0 -66 -14 -85 -60 -29 -73 -14 -182 33 -249
19 -26 27 -30 56 -26 45 5 68 19 122 68 24 22 46 37 50 33 14 -13 16 -175 3
-207 -17 -40 -43 -49 -141 -49 -45 0 -80 -4 -80 -10 -1 -5 -1 -17 -1 -25 0 -8
0 -19 1 -25 0 -6 43 -10 104 -10 67 0 107 -4 115 -12 7 -7 12 -42 12 -85 l0
-73 -85 0 c-143 0 -195 -37 -195 -140 0 -71 26 -113 89 -147 92 -48 201 -20
241 62 18 37 20 62 20 219 l0 178 -28 26 -27 25 28 29 29 29 -4 107 c-3 76
-10 117 -22 143 -17 34 -17 37 0 70 12 23 19 64 22 124 4 89 4 91 -26 123 -25
27 -27 33 -15 44 31 25 45 70 41 129 -4 49 -9 63 -35 87 l-30 29 31 25 31 25
3 212 3 211 -33 0 c-18 -1 -44 -9 -56 -20z m-14 -520 c41 -39 38 -113 -7 -147
-9 -7 -38 -13 -64 -13 -41 0 -53 5 -78 29 -20 20 -29 39 -29 61 0 22 9 41 29
61 25 24 38 29 78 29 35 0 55 -6 71 -20z m-99 -425 c30 -15 81 -70 81 -86 0
-15 -66 -83 -99 -102 l-31 -18 -17 38 c-21 47 -23 144 -4 166 17 21 34 21 70
2z m131 -744 c0 -66 -13 -97 -49 -116 -45 -23 -82 -19 -121 13 -45 38 -48 93
-6 128 23 21 38 24 102 24 l74 0 0 -49z"/>
<path d="M2253 11779 c-25 -12 -46 -31 -53 -50 -18 -42 -7 -115 21 -145 l22
-24 -21 0 c-17 0 -22 -6 -22 -25 l0 -25 160 0 160 0 0 34 0 34 -116 4 c-113 3
-116 4 -140 31 -29 34 -32 87 -6 110 15 14 41 17 140 17 l122 0 0 30 0 30
-112 0 c-94 0 -120 -4 -155 -21z"/>
<path d="M1644 11626 c-12 -31 0 -51 31 -51 27 0 30 3 30 30 0 25 -4 30 -28
33 -17 2 -29 -2 -33 -12z"/>
<path d="M2280 11408 c-57 -29 -90 -84 -90 -152 0 -116 100 -194 213 -165 109
27 158 146 104 250 -26 51 -89 89 -147 89 -20 0 -56 -10 -80 -22z m140 -53
c87 -45 73 -180 -21 -205 -108 -29 -193 65 -144 160 29 55 105 76 165 45z"/>
<path d="M2040 10991 c-25 -47 36 -83 64 -38 8 12 8 22 0 35 -16 25 -51 27
-64 3z"/>
<path d="M2200 10960 l0 -30 161 0 160 0 -3 28 -3 27 -157 3 -158 3 0 -31z"/>
<path d="M6837 10977 c-8 -7 -40 -87 -72 -179 l-59 -168 -132 -85 -132 -86
-169 -216 c-92 -119 -184 -237 -203 -262 -159 -208 -225 -285 -351 -408 l-144
-141 -29 -109 c-15 -59 -35 -131 -43 -160 -10 -36 -40 -85 -99 -165 -48 -62
-87 -114 -89 -116 -2 -2 -44 20 -94 48 -101 55 -117 56 -145 1 -11 -20 -12
-37 -6 -67 5 -21 10 -53 10 -70 0 -31 -2 -32 -111 -74 l-112 -43 -101 22
c-259 56 -254 55 -322 42 l-63 -13 -60 36 -60 37 -187 -19 c-159 -16 -196 -17
-248 -6 -33 7 -65 10 -71 7 -5 -3 -84 -52 -175 -109 l-166 -103 -109 18 c-61
10 -133 29 -162 41 l-51 22 -27 98 c-20 73 -39 116 -76 171 l-49 74 0 -58 c0
-44 6 -66 24 -95 13 -20 36 -83 52 -139 l27 -102 71 -32 c50 -23 105 -38 189
-51 137 -21 107 -31 316 101 80 50 154 91 165 91 12 0 39 -5 60 -10 27 -6 94
-3 221 11 l183 20 55 -35 c61 -39 74 -41 156 -25 52 11 70 9 233 -28 l177 -40
138 54 c75 29 141 57 147 63 6 6 5 37 -3 90 -8 45 -12 83 -9 85 2 2 44 -19 93
-46 49 -27 94 -48 101 -47 12 3 191 234 211 273 6 11 25 74 43 140 17 66 36
134 41 151 7 21 55 74 142 157 114 108 171 175 422 499 l290 375 133 88 c74
49 139 97 146 106 7 10 34 84 61 164 70 205 77 198 74 -70 -1 -118 -1 -216 2
-218 9 -8 164 -141 165 -141 0 -1 -2 -158 -5 -350 l-6 -349 -80 -74 -80 -75
-19 44 c-10 23 -31 88 -46 143 -21 79 -31 101 -46 103 -13 2 -48 -26 -107 -86
l-87 -88 11 -127 c12 -132 3 -344 -23 -524 -13 -96 -9 -104 56 -123 41 -11 46
-17 70 -72 15 -34 25 -62 23 -64 -2 -2 -55 -17 -118 -34 -208 -54 -272 -75
-283 -92 -8 -13 -4 -30 16 -72 41 -82 29 -164 -52 -377 -34 -90 -93 -265 -130
-389 -37 -124 -70 -235 -74 -247 -7 -21 -4 -23 26 -23 l33 0 64 218 c35 119
94 298 132 397 59 156 69 194 78 283 9 89 9 107 -5 134 -11 22 -13 33 -5 37
12 8 237 69 336 92 53 12 60 17 62 39 1 14 -19 68 -45 120 -43 87 -50 96 -87
109 -22 8 -41 15 -42 15 -1 1 5 47 12 104 19 146 28 383 17 481 l-8 84 49 53
c50 54 67 65 67 41 0 -15 41 -142 68 -211 31 -78 42 -78 125 2 40 38 88 84
108 103 47 44 48 53 51 478 l2 334 -35 31 c-19 17 -57 51 -85 76 l-51 45 6
204 c4 134 2 209 -4 218 -6 8 -29 23 -52 33 -32 14 -45 16 -56 7z"/>
<path d="M2200 10821 l0 -50 -42 -3 c-35 -2 -44 -7 -46 -25 -3 -19 2 -22 40
-25 40 -3 43 -5 46 -35 3 -27 7 -33 28 -33 21 0 24 5 24 33 l0 33 123 3 c136
2 155 11 158 66 4 66 0 75 -27 75 -24 0 -26 -3 -21 -30 11 -50 -10 -60 -129
-60 l-104 0 0 50 c0 47 -2 50 -25 50 -23 0 -25 -3 -25 -49z"/>
<path d="M2270 10593 c-54 -17 -69 -36 -84 -104 -6 -30 6 -81 29 -116 16 -23
17 -24 35 -8 17 16 18 20 5 38 -18 26 -20 97 -2 120 6 9 23 18 37 19 24 3 25
0 31 -62 9 -101 40 -140 112 -140 47 0 81 31 91 83 6 32 -1 59 -32 120 -2 4 2
6 10 5 8 -2 14 8 16 25 l3 27 -118 -1 c-65 0 -125 -3 -133 -6z m168 -63 c38
-23 55 -62 47 -102 -6 -27 -30 -48 -55 -48 -6 0 -22 11 -35 25 -21 20 -25 34
-25 85 0 69 10 75 68 40z"/>
<path d="M1651 10476 c-21 -26 -9 -51 24 -51 27 0 30 3 30 30 0 23 -5 31 -21
33 -11 2 -26 -4 -33 -12z"/>
<path d="M1658 10379 c-37 -21 -9 -77 32 -64 22 7 27 44 8 63 -14 14 -18 14
-40 1z"/>
<path d="M2041 10226 c-7 -8 -10 -24 -6 -35 14 -45 79 -30 73 17 -2 21 -9 28
-29 30 -14 2 -31 -4 -38 -12z"/>
<path d="M2200 10205 l0 -25 160 0 160 0 0 25 0 25 -160 0 -160 0 0 -25z"/>
<path d="M1064 10115 c-8 -32 6 -48 37 -43 19 2 24 9 24 33 0 25 -4 31 -27 33
-22 3 -29 -2 -34 -23z"/>
<path d="M2211 10069 c-29 -50 -26 -134 5 -176 41 -54 70 -68 144 -68 73 0
103 14 143 67 38 51 32 163 -12 202 -16 15 -19 15 -35 -3 -18 -19 -17 -21 3
-47 55 -70 -6 -164 -107 -164 -37 0 -50 6 -78 34 -39 39 -44 80 -17 127 13 22
15 34 7 46 -18 29 -29 25 -53 -18z"/>
<path d="M1075 10026 c-20 -14 -17 -44 6 -59 24 -15 49 -1 49 27 0 32 -30 50
-55 32z"/>
<path d="M2317 9749 c-55 -13 -83 -35 -108 -85 -76 -158 85 -316 236 -231 69
38 103 138 74 214 -15 41 -68 91 -103 98 -17 4 -38 8 -46 10 -8 1 -32 -1 -53
-6z m97 -66 c58 -27 81 -96 51 -153 -30 -58 -112 -77 -173 -40 -74 45 -67 155
12 194 40 20 67 20 110 -1z"/>
<path d="M990 9585 l0 -35 283 2 282 3 3 33 3 32 -285 0 -286 0 0 -35z"/>
<path d="M990 9405 l0 -35 250 0 250 0 0 -69 c0 -96 -21 -120 -110 -130 -121
-13 -174 -64 -167 -159 3 -41 10 -59 33 -83 41 -43 71 -56 144 -65 74 -8 100
-28 100 -78 0 -69 -25 -89 -125 -101 -132 -16 -180 -76 -154 -194 9 -42 14
-51 32 -51 40 0 47 12 36 55 -13 51 1 92 36 105 21 8 160 40 173 40 2 0 2 -65
0 -145 -4 -182 -1 -178 -136 -185 l-97 -5 -2 -32 -3 -33 104 0 c126 0 136 -6
136 -83 0 -64 -26 -119 -60 -128 -14 -4 -62 -7 -107 -8 l-83 -1 0 -34 0 -34
185 -4 c216 -4 220 -6 219 -88 l0 -50 34 0 35 0 -6 59 c-2 32 -12 70 -22 84
-23 35 -92 67 -146 67 -24 0 -39 4 -33 8 26 16 54 97 54 153 0 47 -4 60 -26
83 l-26 26 23 19 c23 18 24 26 27 164 3 137 2 146 -18 165 l-21 20 20 33 c14
23 21 51 21 87 0 46 -4 58 -30 84 l-30 30 30 34 c26 30 30 42 30 94 0 55 -3
63 -35 99 -34 37 -35 40 -15 46 38 12 51 56 48 168 l-3 102 -282 2 -283 2 0
-34z m463 -315 c55 -43 43 -130 -20 -156 -88 -37 -185 48 -143 126 26 49 118
65 163 30z"/>
<path d="M2371 9333 c-12 -10 -31 -49 -44 -88 -16 -51 -27 -71 -41 -74 -41 -7
-61 63 -30 107 17 25 10 62 -12 62 -22 0 -54 -61 -54 -103 0 -45 21 -90 52
-111 55 -39 107 -5 132 83 16 57 37 91 56 91 15 0 50 -52 50 -74 0 -11 -9 -36
-20 -54 -17 -27 -18 -36 -8 -52 15 -24 26 -22 50 11 39 52 35 153 -7 195 -30
29 -92 33 -124 7z"/>
<path d="M2365 9034 c-14 -15 -28 -43 -31 -63 -11 -59 -32 -93 -57 -89 -33 5
-46 52 -24 90 20 35 21 52 4 66 -15 13 -27 6 -50 -28 -32 -47 -13 -155 31
-179 32 -17 80 -13 101 8 11 11 25 39 31 63 25 94 61 123 94 76 22 -31 20 -70
-5 -101 -16 -21 -18 -31 -9 -47 14 -26 22 -25 50 5 28 30 39 110 20 155 -29
70 -110 93 -155 44z"/>
<path d="M2265 8680 c-220 -94 -230 -100 -233 -127 -3 -29 -1 -30 230 -132
128 -57 239 -105 246 -108 8 -4 12 6 12 30 0 33 -3 36 -60 60 l-60 26 0 119 0
120 60 22 c57 21 60 24 60 56 0 21 -5 34 -12 33 -7 0 -116 -45 -243 -99z m85
-130 c0 -57 -4 -90 -11 -90 -16 0 -209 82 -209 89 0 7 188 88 208 90 9 1 12
-23 12 -89z"/>
<path d="M1072 8581 c-8 -4 -12 -19 -10 -32 2 -19 9 -24 33 -24 27 0 30 3 30
30 0 22 -5 31 -20 33 -11 1 -26 -2 -33 -7z"/>
<path d="M1070 8345 c-20 -25 -8 -50 25 -50 21 0 31 5 33 18 4 21 -14 47 -33
47 -7 0 -18 -7 -25 -15z"/>
<path d="M1064 8236 c-12 -31 0 -51 31 -51 27 0 30 3 30 30 0 25 -4 30 -28 33
-17 2 -29 -2 -33 -12z"/>
<path d="M2365 8074 c-14 -15 -28 -43 -31 -63 -10 -54 -32 -91 -54 -91 -36 0
-55 75 -25 100 28 23 10 75 -22 63 -21 -8 -43 -58 -43 -97 0 -73 40 -125 96
-126 40 0 71 30 84 83 22 91 61 122 94 75 22 -31 20 -70 -5 -101 -16 -22 -18
-30 -9 -47 14 -27 29 -22 58 20 24 35 29 99 13 143 -26 69 -110 91 -156 41z"/>
<path d="M2190 7793 c0 -16 9 -43 20 -61 24 -39 24 -42 5 -42 -9 0 -15 -10
-15 -26 0 -20 4 -25 16 -20 9 3 81 6 160 6 l144 0 0 24 c0 24 -1 24 -114 28
-131 3 -152 14 -162 80 -6 32 -11 38 -30 38 -19 0 -24 -5 -24 -27z"/>
<path d="M1490 7735 c0 -95 -49 -155 -127 -155 -33 0 -50 6 -68 25 -25 24 -28
36 -29 105 -1 32 -4 35 -33 38 l-33 3 0 -69 c0 -55 5 -76 23 -103 46 -70 138
-88 221 -44 l46 24 0 -64 c0 -69 -13 -110 -39 -121 -9 -4 -56 -10 -106 -13
l-89 -6 0 -30 0 -30 104 -3 c57 -1 110 -8 117 -14 9 -7 13 -36 13 -84 0 -89
-12 -105 -94 -129 -31 -9 -58 -20 -61 -25 -3 -5 1 -23 10 -40 l16 -30 41 21
c24 12 69 24 103 26 51 4 65 1 95 -19 40 -27 80 -98 80 -143 0 -130 -96 -202
-216 -161 -26 9 -48 15 -49 13 -6 -7 -25 -46 -25 -51 0 -3 15 -13 33 -23 22
-12 56 -17 107 -17 87 -1 124 16 174 77 29 36 31 45 34 132 3 82 1 100 -19
140 -28 55 -68 88 -138 111 -36 11 -48 19 -39 25 9 6 14 37 16 98 4 88 3 91
-25 119 l-28 28 25 21 c25 21 25 22 28 217 l3 196 -35 0 c-36 0 -36 0 -36 -45z"/>
<path d="M2325 7553 c-52 -13 -87 -39 -112 -80 -35 -59 -30 -142 11 -195 73
-97 228 -85 283 21 59 113 -3 238 -127 254 -19 3 -44 3 -55 0z m89 -68 c37
-18 66 -61 66 -100 0 -116 -172 -158 -225 -55 -53 102 52 205 159 155z"/>
<path d="M1643 7394 c-8 -22 10 -49 32 -49 10 0 22 7 28 16 15 24 1 49 -28 49
-15 0 -28 -7 -32 -16z"/>
<path d="M1651 7296 c-21 -26 -9 -51 24 -51 27 0 30 3 30 30 0 23 -5 31 -21
33 -11 2 -26 -4 -33 -12z"/>
<path d="M2483 7141 c6 -31 -9 -58 -33 -61 -8 -2 -57 -2 -107 -1 l-93 1 0 40
c0 36 -2 40 -25 40 -22 0 -25 -4 -25 -39 0 -40 0 -40 -42 -43 -38 -3 -43 -6
-43 -28 0 -22 5 -25 43 -28 42 -3 42 -3 42 -43 0 -35 3 -39 25 -39 23 0 25 4
25 40 l0 40 104 0 c56 0 117 5 134 11 36 12 51 47 44 102 -4 32 -8 37 -29 37
-23 0 -25 -3 -20 -29z"/>
<path d="M4234 7029 c-62 -18 -114 -103 -114 -187 0 -47 36 -123 73 -152 l31
-25 1471 -2 c1158 -2 1475 0 1495 10 13 7 39 32 57 55 30 40 33 50 33 114 0
91 -31 150 -93 179 -41 18 -92 19 -1482 18 -836 -1 -1453 -5 -1471 -10z"/>
<path d="M3670 7023 c-65 -25 -110 -98 -110 -178 0 -197 204 -262 291 -93 38
73 18 185 -43 239 -37 34 -97 47 -138 32z"/>
<path d="M1150 6905 c-26 -31 13 -82 44 -56 19 16 21 42 4 59 -16 16 -33 15
-48 -3z"/>
<path d="M2254 6876 c-44 -20 -64 -52 -64 -107 0 -36 6 -55 25 -77 30 -36 31
-42 5 -42 -15 0 -20 -7 -20 -25 l0 -25 160 0 160 0 0 25 c0 23 -4 25 -47 25
-171 0 -233 25 -233 93 0 65 13 72 154 75 l126 4 0 34 0 34 -117 0 c-77 -1
-129 -6 -149 -14z"/>
<path d="M2284 6509 c-99 -29 -135 -158 -68 -246 35 -47 84 -66 152 -61 91 8
152 73 152 162 0 84 -54 162 -83 122 -12 -17 -11 -24 9 -54 33 -47 31 -94 -3
-131 -16 -16 -38 -32 -50 -36 l-23 -6 0 130 0 131 -27 -1 c-16 0 -42 -5 -59
-10z m46 -148 c0 -93 -1 -99 -19 -94 -67 17 -91 123 -38 169 51 43 57 35 57
-75z"/>
<path d="M990 6345 l0 -35 283 2 282 3 3 33 3 32 -285 0 -286 0 0 -35z"/>
<path d="M4698 6282 c-64 -42 -83 -82 -83 -172 1 -42 7 -67 27 -102 50 -84
-36 -78 1128 -78 744 0 1037 3 1053 11 119 61 133 243 27 333 l-32 26 -1046 0
c-987 0 -1049 -1 -1074 -18z"/>
<path d="M4135 6271 c-43 -26 -61 -50 -79 -103 -37 -111 41 -248 141 -248 71
0 137 58 154 137 34 151 -102 285 -216 214z"/>
<path d="M990 6145 l0 -35 250 0 250 0 0 -65 0 -65 -175 0 -175 0 0 -35 0 -35
175 0 175 0 0 -85 0 -85 35 0 35 0 0 220 0 220 -285 0 -285 0 0 -35z"/>
<path d="M2200 6133 c0 -28 5 -32 73 -57 105 -40 151 -59 160 -66 7 -6 -17
-17 -163 -73 -59 -23 -65 -29 -68 -56 -2 -17 1 -31 6 -31 5 0 67 24 138 54 71
29 139 57 152 60 17 6 22 15 22 40 l0 33 -147 58 c-82 31 -154 60 -160 62 -9
3 -13 -5 -13 -24z"/>
<path d="M1720 5977 c-19 -41 -56 -49 -69 -15 -5 13 -7 26 -4 31 2 4 -5 7 -16
7 -26 0 -28 -35 -5 -69 14 -20 23 -23 60 -18 33 3 44 1 44 -9 0 -8 7 -14 15
-14 12 0 15 13 15 60 0 69 -16 79 -40 27z"/>
<path d="M2238 5773 c-54 -34 -67 -129 -23 -181 30 -36 31 -42 5 -42 -15 0
-20 -7 -20 -26 0 -24 3 -26 31 -20 17 3 89 6 160 6 l129 0 0 25 0 25 -111 0
c-109 0 -111 0 -140 29 -21 21 -29 39 -29 64 0 57 19 66 155 69 l120 3 3 33 3
32 -128 0 c-101 0 -134 -4 -155 -17z"/>
<path d="M1314 5679 c-18 -5 -46 -25 -62 -44 -54 -61 -55 -149 -1 -210 33 -37
65 -50 148 -60 71 -9 91 -30 91 -95 l0 -50 -250 0 -250 0 0 -35 0 -35 285 0
285 0 0 91 c0 88 -1 92 -31 121 -30 30 -30 31 -11 52 11 11 25 31 31 43 17 33
13 113 -7 153 -32 65 -135 96 -228 69z m144 -89 c41 -39 41 -101 0 -140 -16
-14 -35 -20 -71 -20 -40 0 -53 5 -78 29 -20 20 -29 39 -29 61 0 22 9 41 29 61
25 24 38 29 78 29 36 0 55 -6 71 -20z"/>
<path d="M4462 5620 c-23 -16 -48 -43 -57 -60 -37 -71 -27 -172 21 -230 54
-64 -8 -60 1021 -60 865 1 940 2 970 18 120 65 123 259 4 339 l-34 23 -942 0
-942 0 -41 -30z"/>
<path d="M2030 5365 l0 -25 245 0 245 0 0 25 0 25 -245 0 -245 0 0 -25z"/>
<path d="M2470 4935 l0 -135 -95 0 -95 0 0 120 0 120 -25 0 -25 0 0 -120 0
-120 -75 0 -75 0 0 125 0 125 -25 0 -25 0 0 -150 0 -150 245 0 245 0 0 160 0
160 -25 0 -25 0 0 -135z"/>
<path d="M1257 5026 c-3 -8 -3 -24 0 -35 5 -20 11 -21 157 -21 83 0 168 -5
189 -11 42 -11 60 -42 55 -91 -3 -30 13 -48 45 -48 14 0 17 9 17 59 0 79 -27
120 -95 143 -67 23 -360 26 -368 4z"/>
<path d="M992 4748 l3 -33 280 0 280 0 3 33 3 32 -286 0 -286 0 3 -32z"/>
<path d="M2455 4656 c-27 -12 -135 -57 -238 -101 -187 -80 -188 -80 -185 -110
3 -29 11 -33 228 -128 124 -54 233 -101 243 -104 14 -4 17 1 17 29 0 32 -3 35
-60 57 l-61 24 3 120 3 119 55 23 c51 21 55 26 58 59 4 41 4 41 -63 12z m-108
-302 c-2 -3 -54 17 -116 42 -61 26 -110 48 -108 50 2 3 53 24 113 47 l109 44
3 -90 c1 -49 1 -91 -1 -93z"/>
<path d="M1072 4628 c-30 -30 3 -77 40 -57 22 12 24 55 2 63 -22 8 -28 8 -42
-6z"/>
<path d="M1240 4555 l0 -25 126 0 126 0 -4 -90 c-4 -119 -9 -123 -135 -130
l-97 -5 -1 -30 0 -30 105 -3 c126 -3 130 -6 130 -104 l0 -68 -90 0 c-101 0
-136 -12 -169 -59 -16 -22 -21 -44 -21 -89 0 -51 4 -65 27 -93 57 -68 178 -91
243 -46 72 48 75 58 78 268 l3 189 -28 29 -28 28 22 17 c27 20 41 81 24 107
-6 11 -11 50 -11 89 l0 70 -150 0 -150 0 0 -25z m248 -590 c8 -89 -30 -140
-102 -138 -47 1 -75 19 -92 58 -32 77 26 125 146 121 45 -1 45 -1 48 -41z"/>
<path d="M1067 4524 c-25 -25 8 -70 43 -59 32 10 24 59 -10 63 -14 2 -29 0
-33 -4z"/>
<path d="M1650 4355 c-26 -31 13 -82 44 -56 19 16 21 42 4 59 -16 16 -33 15
-48 -3z"/>
<path d="M1644 4246 c-12 -31 0 -51 31 -51 27 0 30 3 30 30 0 25 -4 30 -28 33
-17 2 -29 -2 -33 -12z"/>
<path d="M2030 4116 l0 -24 184 -4 c210 -3 229 -10 255 -85 13 -35 13 -46 0
-78 -28 -74 -46 -80 -255 -83 l-184 -3 0 -35 0 -34 182 0 c164 0 186 2 225 21
126 61 125 273 0 330 -36 16 -67 19 -224 19 l-183 0 0 -24z"/>
<path d="M1070 4005 c-26 -31 13 -82 44 -56 19 16 21 42 4 59 -16 16 -33 15
-48 -3z"/>
<path d="M1064 3885 c-8 -32 6 -48 37 -43 19 2 24 9 24 33 0 25 -4 31 -27 33
-22 3 -29 -2 -34 -23z"/>
<path d="M5714 2763 c23 -76 26 -168 26 -898 0 -650 -3 -800 -14 -845 -8 -30
-12 -58 -10 -62 7 -10 304 -10 304 0 0 4 -7 42 -15 85 -12 65 -15 189 -14 720
0 391 4 634 9 622 5 -11 77 -218 160 -460 157 -456 204 -593 288 -830 l49
-140 170 -3 c156 -2 171 -1 178 15 4 10 34 95 67 188 32 94 70 199 83 235 25
70 113 320 220 625 36 105 77 219 90 255 13 36 29 83 37 105 11 34 13 -47 16
-580 3 -575 0 -669 -24 -808 l-7 -37 273 0 272 0 -7 28 c-21 82 -25 212 -25
892 0 675 4 815 26 888 l6 22 -310 0 -310 0 -42 -117 c-23 -65 -57 -161 -75
-213 -36 -102 -77 -218 -230 -653 -57 -160 -101 -273 -106 -265 -3 7 -19 49
-34 93 -50 145 -102 297 -180 520 -106 305 -173 499 -198 573 l-21 62 -329 0
c-308 0 -328 -1 -323 -17z m634 -40 c10 -27 34 -94 151 -433 27 -80 67 -197
89 -260 23 -63 77 -220 121 -348 44 -128 84 -240 89 -248 10 -18 8 -23 107
261 37 105 77 219 90 255 13 36 67 189 120 340 53 151 111 316 128 365 l32 90
273 2 c149 1 274 -2 277 -6 2 -5 0 -23 -5 -42 -12 -42 -13 -1620 -1 -1671 l9
-38 -230 0 -230 0 8 27 c4 16 9 360 11 766 4 702 3 737 -14 737 -19 0 -21 -7
-198 -515 -36 -104 -77 -219 -90 -255 -36 -98 -265 -752 -265 -756 0 -2 -68
-4 -150 -4 -112 0 -152 3 -155 13 -2 6 -38 109 -79 227 -414 1199 -445 1285
-459 1288 -12 2 -17 -7 -19 -35 -7 -84 8 -1459 16 -1475 7 -17 -1 -18 -104
-18 l-111 0 8 58 c11 76 10 1559 0 1640 l-9 62 290 0 290 0 10 -27z"/>
<path d="M1368 2746 c-78 -21 -129 -70 -178 -171 -12 -24 -15 -95 -18 -344 -3
-297 -2 -317 18 -385 18 -58 31 -79 70 -118 78 -75 95 -78 502 -78 l349 0 24
-25 c25 -24 25 -27 25 -194 0 -181 -7 -217 -45 -227 -12 -3 -208 -4 -436 -1
-315 2 -423 7 -451 17 -21 7 -40 11 -42 9 -3 -3 13 -131 34 -257 0 -1 262 -1
583 0 449 3 591 7 622 17 57 19 127 94 156 166 23 59 24 66 24 395 0 248 -3
347 -13 380 -21 72 -75 143 -135 176 l-52 29 -378 5 c-359 5 -379 6 -393 24
-21 30 -26 73 -22 204 5 179 -43 162 452 162 323 0 423 -3 466 -14 30 -8 57
-13 59 -10 4 3 -14 157 -25 222 l-6 32 -572 -1 c-426 0 -583 -4 -618 -13z"/>
<path d="M2747 2638 c-10 -68 -17 -128 -17 -134 0 -8 14 -7 43 4 32 12 90 17
240 20 l197 4 0 -709 c-1 -527 -4 -727 -14 -780 l-12 -73 259 0 259 0 -6 23
c-19 63 -26 322 -24 897 l3 635 200 -1 c161 0 208 -3 243 -17 23 -9 42 -13 42
-9 0 4 -9 61 -20 127 -11 66 -20 123 -20 128 0 4 -305 7 -678 7 l-679 0 -16
-122z"/>
<path d="M4257 2718 c10 -54 11 -1625 0 -1696 l-8 -52 635 0 c449 0 637 3 642
11 6 11 43 242 39 247 -1 1 -28 -4 -61 -13 -47 -12 -128 -15 -416 -15 l-358 0
0 280 0 280 313 0 c238 0 326 -4 372 -15 33 -8 63 -14 68 -15 4 0 7 66 7 146
l0 146 -22 -7 c-71 -21 -122 -24 -413 -25 l-320 -2 -3 277 -2 277 362 -4 c292
-4 374 -8 418 -21 30 -8 56 -14 57 -13 1 1 -7 56 -17 121 -11 66 -20 123 -20
128 0 4 -288 7 -641 7 l-641 0 9 -42z"/>
</g>
</svg>
